<mxfile host="app.diagrams.net" agent="Mozilla/5.0 (Windows NT 10.0; Win64; x64) AppleWebKit/537.36 (KHTML, like Gecko) Chrome/129.0.0.0 Safari/537.36 Edg/129.0.0.0" version="24.7.16">
  <diagram name="Page-1" id="9f46799a-70d6-7492-0946-bef42562c5a5">
    <mxGraphModel dx="1426" dy="783" grid="1" gridSize="10" guides="1" tooltips="1" connect="1" arrows="1" fold="1" page="1" pageScale="1" pageWidth="1100" pageHeight="850" background="none" math="0" shadow="0">
      <root>
        <mxCell id="0" />
        <mxCell id="1" parent="0" />
        <mxCell id="78961159f06e98e8-17" value="tkacheva_group" style="swimlane;html=1;fontStyle=1;align=center;verticalAlign=top;childLayout=stackLayout;horizontal=1;startSize=26;horizontalStack=0;resizeParent=1;resizeLast=0;collapsible=1;marginBottom=0;swimlaneFillColor=#ffffff;rounded=0;shadow=0;comic=0;labelBackgroundColor=none;strokeWidth=1;fillColor=none;fontFamily=Verdana;fontSize=12" parent="1" vertex="1">
          <mxGeometry x="500" width="330" height="180" as="geometry" />
        </mxCell>
        <mxCell id="78961159f06e98e8-21" value="static vector &amp;lt;shared_ptr&amp;lt;tkacheva_student&amp;gt;&amp;gt; students;" style="text;html=1;strokeColor=none;fillColor=none;align=left;verticalAlign=top;spacingLeft=4;spacingRight=4;whiteSpace=wrap;overflow=hidden;rotatable=0;points=[[0,0.5],[1,0.5]];portConstraint=eastwest;" parent="78961159f06e98e8-17" vertex="1">
          <mxGeometry y="26" width="330" height="34" as="geometry" />
        </mxCell>
        <mxCell id="78961159f06e98e8-19" value="" style="line;html=1;strokeWidth=1;fillColor=none;align=left;verticalAlign=middle;spacingTop=-1;spacingLeft=3;spacingRight=3;rotatable=0;labelPosition=right;points=[];portConstraint=eastwest;" parent="78961159f06e98e8-17" vertex="1">
          <mxGeometry y="60" width="330" height="8" as="geometry" />
        </mxCell>
        <mxCell id="78961159f06e98e8-20" value="&lt;div&gt;void add_student();&lt;/div&gt;&lt;div&gt;void add_headman();&lt;/div&gt;&lt;div&gt;void view_students();&lt;/div&gt;&lt;div&gt;void delete_students();&lt;/div&gt;&lt;div&gt;virtual void save_data();&lt;/div&gt;&lt;div&gt;virtual void load_data();&lt;/div&gt;" style="text;html=1;strokeColor=none;fillColor=none;align=left;verticalAlign=top;spacingLeft=4;spacingRight=4;whiteSpace=wrap;overflow=hidden;rotatable=0;points=[[0,0.5],[1,0.5]];portConstraint=eastwest;" parent="78961159f06e98e8-17" vertex="1">
          <mxGeometry y="68" width="330" height="112" as="geometry" />
        </mxCell>
        <mxCell id="lvK2TQSOjIYvFxsR940x-1" value="tkacheva_student" style="swimlane;fontStyle=1;align=center;verticalAlign=top;childLayout=stackLayout;horizontal=1;startSize=26;horizontalStack=0;resizeParent=1;resizeParentMax=0;resizeLast=0;collapsible=1;marginBottom=0;whiteSpace=wrap;html=1;" parent="1" vertex="1">
          <mxGeometry x="515" y="240" width="300" height="180" as="geometry" />
        </mxCell>
        <mxCell id="lvK2TQSOjIYvFxsR940x-2" value="&lt;div&gt;string name;&lt;/div&gt;&lt;div&gt;string last_name;&lt;/div&gt;&lt;div&gt;int age;&lt;/div&gt;" style="text;strokeColor=none;fillColor=none;align=left;verticalAlign=top;spacingLeft=4;spacingRight=4;overflow=hidden;rotatable=0;points=[[0,0.5],[1,0.5]];portConstraint=eastwest;whiteSpace=wrap;html=1;" parent="lvK2TQSOjIYvFxsR940x-1" vertex="1">
          <mxGeometry y="26" width="300" height="44" as="geometry" />
        </mxCell>
        <mxCell id="lvK2TQSOjIYvFxsR940x-3" value="" style="line;strokeWidth=1;fillColor=none;align=left;verticalAlign=middle;spacingTop=-1;spacingLeft=3;spacingRight=3;rotatable=0;labelPosition=right;points=[];portConstraint=eastwest;strokeColor=inherit;" parent="lvK2TQSOjIYvFxsR940x-1" vertex="1">
          <mxGeometry y="70" width="300" height="30" as="geometry" />
        </mxCell>
        <mxCell id="lvK2TQSOjIYvFxsR940x-4" value="&lt;div&gt;virtual void create(istream&amp;amp; in);&lt;/div&gt;&lt;div&gt;virtual void show(ostream&amp;amp; out);&lt;/div&gt;&lt;div&gt;&lt;div&gt;template &amp;lt;class Archive&amp;gt;&lt;/div&gt;&lt;div&gt;void serialize(Archive&amp;amp; ar, const unsigned int version);&lt;/div&gt;&lt;/div&gt;" style="text;strokeColor=none;fillColor=none;align=left;verticalAlign=top;spacingLeft=4;spacingRight=4;overflow=hidden;rotatable=0;points=[[0,0.5],[1,0.5]];portConstraint=eastwest;whiteSpace=wrap;html=1;" parent="lvK2TQSOjIYvFxsR940x-1" vertex="1">
          <mxGeometry y="100" width="300" height="80" as="geometry" />
        </mxCell>
        <mxCell id="lvK2TQSOjIYvFxsR940x-9" value="tkacheva_headman" style="swimlane;fontStyle=1;align=center;verticalAlign=top;childLayout=stackLayout;horizontal=1;startSize=26;horizontalStack=0;resizeParent=1;resizeParentMax=0;resizeLast=0;collapsible=1;marginBottom=0;whiteSpace=wrap;html=1;" parent="1" vertex="1">
          <mxGeometry x="515" y="480" width="300" height="190" as="geometry" />
        </mxCell>
        <mxCell id="lvK2TQSOjIYvFxsR940x-10" value="&lt;div&gt;string group_name;&lt;/div&gt;&lt;div&gt;string email;&lt;/div&gt;" style="text;strokeColor=none;fillColor=none;align=left;verticalAlign=top;spacingLeft=4;spacingRight=4;overflow=hidden;rotatable=0;points=[[0,0.5],[1,0.5]];portConstraint=eastwest;whiteSpace=wrap;html=1;" parent="lvK2TQSOjIYvFxsR940x-9" vertex="1">
          <mxGeometry y="26" width="300" height="44" as="geometry" />
        </mxCell>
        <mxCell id="lvK2TQSOjIYvFxsR940x-11" value="" style="line;strokeWidth=1;fillColor=none;align=left;verticalAlign=middle;spacingTop=-1;spacingLeft=3;spacingRight=3;rotatable=0;labelPosition=right;points=[];portConstraint=eastwest;strokeColor=inherit;" parent="lvK2TQSOjIYvFxsR940x-9" vertex="1">
          <mxGeometry y="70" width="300" height="8" as="geometry" />
        </mxCell>
        <mxCell id="lvK2TQSOjIYvFxsR940x-12" value="&lt;div&gt;void create(istream&amp;amp; in) override;&lt;/div&gt;&lt;div&gt;void show(ostream&amp;amp; out) override;&lt;/div&gt;&lt;div&gt;template&amp;lt;class Archive&amp;gt;&lt;/div&gt;&lt;div&gt;void save(Archive&amp;amp; ar, const unsigned int version) const;&lt;/div&gt;&lt;div&gt;&lt;div&gt;template&amp;lt;class Archive&amp;gt;&lt;/div&gt;&lt;div&gt;void load(Archive&amp;amp; ar, const unsigned int version);&lt;/div&gt;&lt;/div&gt;" style="text;strokeColor=none;fillColor=none;align=left;verticalAlign=top;spacingLeft=4;spacingRight=4;overflow=hidden;rotatable=0;points=[[0,0.5],[1,0.5]];portConstraint=eastwest;whiteSpace=wrap;html=1;" parent="lvK2TQSOjIYvFxsR940x-9" vertex="1">
          <mxGeometry y="78" width="300" height="112" as="geometry" />
        </mxCell>
        <mxCell id="lvK2TQSOjIYvFxsR940x-20" value="" style="endArrow=diamondThin;endFill=1;endSize=24;html=1;rounded=0;exitX=0.5;exitY=0;exitDx=0;exitDy=0;entryX=0.503;entryY=1.004;entryDx=0;entryDy=0;entryPerimeter=0;" parent="1" source="lvK2TQSOjIYvFxsR940x-1" target="78961159f06e98e8-20" edge="1">
          <mxGeometry width="160" relative="1" as="geometry">
            <mxPoint x="550" y="340" as="sourcePoint" />
            <mxPoint x="710" y="340" as="targetPoint" />
          </mxGeometry>
        </mxCell>
        <mxCell id="lvK2TQSOjIYvFxsR940x-21" value="" style="endArrow=block;endSize=16;endFill=0;html=1;rounded=0;entryX=0.477;entryY=0.968;entryDx=0;entryDy=0;entryPerimeter=0;" parent="1" target="lvK2TQSOjIYvFxsR940x-4" edge="1">
          <mxGeometry width="160" relative="1" as="geometry">
            <mxPoint x="658" y="480" as="sourcePoint" />
            <mxPoint x="660" y="520" as="targetPoint" />
          </mxGeometry>
        </mxCell>
      </root>
    </mxGraphModel>
  </diagram>
</mxfile>
